<svg xmlns="http://www.w3.org/2000/svg" xmlns:xlink="http://www.w3.org/1999/xlink" width="235" zoomAndPan="magnify" viewBox="0 0 176.25 170.249993" height="227" preserveAspectRatio="xMidYMid meet" version="1.0"><defs><filter x="0%" y="0%" width="100%" height="100%" id="d0c632c20b"><feColorMatrix values="0 0 0 0 1 0 0 0 0 1 0 0 0 0 1 0 0 0 1 0" color-interpolation-filters="sRGB"/></filter><clipPath id="76643878fc"><path d="M 0.0117188 1 L 168 1 L 168 169.503906 L 0.0117188 169.503906 Z M 0.0117188 1 " clip-rule="nonzero"/></clipPath><mask id="14a59b5744"><g filter="url(#d0c632c20b)"><rect x="-17.625" width="211.5" fill="#000000" y="-17.024999" height="204.299992" fill-opacity="0.19"/></g></mask><clipPath id="46e6ed2f65"><path d="M 0.253906 1.355469 L 167.359375 1.355469 L 167.359375 167.871094 L 0.253906 167.871094 Z M 0.253906 1.355469 " clip-rule="nonzero"/></clipPath><clipPath id="6541a18e17"><path d="M 164.527344 4.085938 C 162.78125 2.339844 160.394531 1.402344 157.796875 1.480469 L 68 3.851562 C 63.46875 3.976562 59.230469 7.042969 57.460938 11.488281 C 55.957031 15.261719 56.660156 19.246094 59.300781 21.886719 L 70.492188 33.082031 L 37.910156 33.941406 C 33.375 34.0625 29.140625 37.132812 27.371094 41.578125 C 25.867188 45.355469 26.574219 49.335938 29.210938 51.976562 L 36.300781 59.066406 L 12.144531 59.703125 C 7.613281 59.828125 3.378906 62.894531 1.609375 67.339844 C 0.105469 71.117188 0.808594 75.101562 3.449219 77.738281 L 90.863281 165.152344 C 92.585938 166.875 94.882812 167.777344 97.316406 167.777344 C 98.617188 167.777344 99.960938 167.519531 101.277344 166.992188 C 105.71875 165.21875 108.785156 160.980469 108.902344 156.453125 L 109.539062 132.304688 L 116.628906 139.394531 C 118.351562 141.113281 120.644531 142.011719 123.078125 142.011719 C 124.378906 142.011719 125.722656 141.757812 127.039062 141.230469 C 131.484375 139.457031 134.546875 135.21875 134.664062 130.691406 L 135.527344 98.113281 L 146.714844 109.300781 C 148.4375 111.023438 150.730469 111.925781 153.167969 111.925781 C 154.46875 111.925781 155.8125 111.667969 157.128906 111.140625 C 161.570312 109.367188 164.636719 105.128906 164.753906 100.601562 L 167.128906 10.8125 C 167.199219 8.222656 166.273438 5.832031 164.527344 4.085938 Z M 38.542969 45.265625 L 81.546875 44.132812 L 94.929688 57.515625 L 51.925781 58.652344 Z M 124.890625 71.4375 L 97.171875 43.71875 L 125.644531 42.96875 Z M 98.902344 105.628906 L 62.980469 69.707031 L 99.878906 68.730469 Z M 97.574219 155.824219 L 12.777344 71.03125 L 47.355469 70.117188 L 98.488281 121.253906 Z M 123.335938 130.0625 L 109.953125 116.679688 L 111.09375 73.679688 L 124.476562 87.0625 Z M 153.425781 99.972656 L 135.941406 82.488281 L 137.042969 40.902344 C 137.109375 38.308594 136.1875 35.917969 134.4375 34.171875 C 132.691406 32.425781 130.289062 31.515625 127.707031 31.570312 L 86.117188 32.667969 L 68.628906 15.179688 L 155.730469 12.878906 Z M 153.425781 99.972656 " clip-rule="nonzero"/></clipPath><clipPath id="85e76b0ebd"><rect x="0" width="168" y="0" height="169"/></clipPath><clipPath id="2d772b10c1"><path d="M 8 0.457031 L 175 0.457031 L 175 166.972656 L 8 166.972656 Z M 8 0.457031 " clip-rule="nonzero"/></clipPath><clipPath id="c1abe4ee2f"><path d="M 172.34375 3.183594 C 170.59375 1.4375 168.207031 0.5 165.609375 0.578125 L 75.8125 2.949219 C 71.28125 3.074219 67.046875 6.144531 65.273438 10.585938 C 63.769531 14.363281 64.476562 18.347656 67.113281 20.984375 L 78.308594 32.179688 L 45.722656 33.039062 C 41.191406 33.164062 36.953125 36.234375 35.183594 40.679688 C 33.679688 44.453125 34.386719 48.4375 37.027344 51.074219 L 44.117188 58.164062 L 19.960938 58.800781 C 15.425781 58.925781 11.191406 61.996094 9.421875 66.441406 C 7.917969 70.214844 8.625 74.199219 11.261719 76.835938 L 98.679688 164.253906 C 100.402344 165.976562 102.695312 166.875 105.128906 166.875 C 106.433594 166.875 107.773438 166.617188 109.089844 166.09375 C 113.535156 164.320312 116.597656 160.082031 116.714844 155.550781 L 117.355469 131.402344 L 124.441406 138.492188 C 126.164062 140.214844 128.457031 141.113281 130.894531 141.113281 C 132.195312 141.113281 133.539062 140.855469 134.855469 140.328125 C 139.296875 138.554688 142.363281 134.316406 142.476562 129.789062 L 143.339844 97.210938 L 154.53125 108.402344 C 156.253906 110.125 158.546875 111.023438 160.980469 111.023438 C 162.285156 111.023438 163.625 110.765625 164.941406 110.242188 C 169.386719 108.464844 172.449219 104.226562 172.566406 99.699219 L 174.945312 9.914062 C 175.011719 7.320312 174.089844 4.933594 172.34375 3.183594 Z M 46.355469 44.367188 L 89.359375 43.230469 L 102.746094 56.617188 L 59.742188 57.75 Z M 132.703125 70.535156 L 104.984375 42.820312 L 133.457031 42.070312 Z M 106.71875 104.726562 L 70.792969 68.804688 L 107.695312 67.832031 Z M 105.386719 154.925781 L 20.59375 70.128906 L 55.167969 69.21875 L 106.304688 120.351562 Z M 131.152344 129.160156 L 117.769531 115.78125 L 118.90625 72.777344 L 132.289062 86.160156 Z M 161.238281 99.074219 L 143.753906 81.585938 L 144.855469 40.003906 C 144.925781 37.410156 144 35.019531 142.25 33.269531 C 140.503906 31.523438 138.105469 30.613281 135.523438 30.667969 L 93.933594 31.765625 L 76.445312 14.277344 L 163.546875 11.976562 Z M 161.238281 99.074219 " clip-rule="nonzero"/></clipPath><linearGradient x1="-1.287" gradientTransform="matrix(0.563725, 0, 0, 0.563725, 8.643974, 0.574858)" y1="147.501007" x2="295.125006" gradientUnits="userSpaceOnUse" y2="147.501007" id="d2087d33ba"><stop stop-opacity="1" stop-color="rgb(15.699768%, 61.599731%, 82.398987%)" offset="0"/><stop stop-opacity="1" stop-color="rgb(15.830994%, 61.790466%, 82.270813%)" offset="0.03125"/><stop stop-opacity="1" stop-color="rgb(16.040039%, 62.091064%, 82.067871%)" offset="0.046875"/><stop stop-opacity="1" stop-color="rgb(16.194153%, 62.312317%, 81.918335%)" offset="0.0625"/><stop stop-opacity="1" stop-color="rgb(16.348267%, 62.533569%, 81.768799%)" offset="0.078125"/><stop stop-opacity="1" stop-color="rgb(16.50238%, 62.754822%, 81.620789%)" offset="0.09375"/><stop stop-opacity="1" stop-color="rgb(16.656494%, 62.976074%, 81.471252%)" offset="0.109375"/><stop stop-opacity="1" stop-color="rgb(16.809082%, 63.197327%, 81.321716%)" offset="0.125"/><stop stop-opacity="1" stop-color="rgb(16.963196%, 63.418579%, 81.17218%)" offset="0.140625"/><stop stop-opacity="1" stop-color="rgb(17.11731%, 63.639832%, 81.02417%)" offset="0.15625"/><stop stop-opacity="1" stop-color="rgb(17.271423%, 63.861084%, 80.874634%)" offset="0.171875"/><stop stop-opacity="1" stop-color="rgb(17.425537%, 64.082336%, 80.725098%)" offset="0.1875"/><stop stop-opacity="1" stop-color="rgb(17.579651%, 64.303589%, 80.575562%)" offset="0.203125"/><stop stop-opacity="1" stop-color="rgb(17.732239%, 64.524841%, 80.427551%)" offset="0.21875"/><stop stop-opacity="1" stop-color="rgb(17.886353%, 64.746094%, 80.278015%)" offset="0.234375"/><stop stop-opacity="1" stop-color="rgb(18.040466%, 64.967346%, 80.128479%)" offset="0.25"/><stop stop-opacity="1" stop-color="rgb(18.19458%, 65.190125%, 79.978943%)" offset="0.265625"/><stop stop-opacity="1" stop-color="rgb(18.348694%, 65.411377%, 79.830933%)" offset="0.28125"/><stop stop-opacity="1" stop-color="rgb(18.502808%, 65.632629%, 79.681396%)" offset="0.296875"/><stop stop-opacity="1" stop-color="rgb(18.655396%, 65.853882%, 79.53186%)" offset="0.3125"/><stop stop-opacity="1" stop-color="rgb(18.809509%, 66.075134%, 79.382324%)" offset="0.328125"/><stop stop-opacity="1" stop-color="rgb(18.963623%, 66.296387%, 79.234314%)" offset="0.34375"/><stop stop-opacity="1" stop-color="rgb(19.117737%, 66.517639%, 79.084778%)" offset="0.359375"/><stop stop-opacity="1" stop-color="rgb(19.271851%, 66.738892%, 78.935242%)" offset="0.375"/><stop stop-opacity="1" stop-color="rgb(19.425964%, 66.960144%, 78.787231%)" offset="0.390625"/><stop stop-opacity="1" stop-color="rgb(19.578552%, 67.181396%, 78.637695%)" offset="0.40625"/><stop stop-opacity="1" stop-color="rgb(19.732666%, 67.402649%, 78.488159%)" offset="0.421875"/><stop stop-opacity="1" stop-color="rgb(19.88678%, 67.623901%, 78.338623%)" offset="0.4375"/><stop stop-opacity="1" stop-color="rgb(20.040894%, 67.845154%, 78.190613%)" offset="0.453125"/><stop stop-opacity="1" stop-color="rgb(20.195007%, 68.066406%, 78.041077%)" offset="0.46875"/><stop stop-opacity="1" stop-color="rgb(20.349121%, 68.289185%, 77.891541%)" offset="0.484375"/><stop stop-opacity="1" stop-color="rgb(20.501709%, 68.510437%, 77.742004%)" offset="0.5"/><stop stop-opacity="1" stop-color="rgb(20.655823%, 68.731689%, 77.593994%)" offset="0.515625"/><stop stop-opacity="1" stop-color="rgb(20.809937%, 68.952942%, 77.444458%)" offset="0.53125"/><stop stop-opacity="1" stop-color="rgb(20.96405%, 69.174194%, 77.294922%)" offset="0.546875"/><stop stop-opacity="1" stop-color="rgb(21.118164%, 69.395447%, 77.145386%)" offset="0.5625"/><stop stop-opacity="1" stop-color="rgb(21.270752%, 69.616699%, 76.997375%)" offset="0.578125"/><stop stop-opacity="1" stop-color="rgb(21.424866%, 69.837952%, 76.847839%)" offset="0.59375"/><stop stop-opacity="1" stop-color="rgb(21.578979%, 70.059204%, 76.698303%)" offset="0.609375"/><stop stop-opacity="1" stop-color="rgb(21.733093%, 70.280457%, 76.548767%)" offset="0.625"/><stop stop-opacity="1" stop-color="rgb(21.887207%, 70.501709%, 76.400757%)" offset="0.640625"/><stop stop-opacity="1" stop-color="rgb(22.041321%, 70.722961%, 76.251221%)" offset="0.65625"/><stop stop-opacity="1" stop-color="rgb(22.193909%, 70.944214%, 76.101685%)" offset="0.671875"/><stop stop-opacity="1" stop-color="rgb(22.348022%, 71.165466%, 75.952148%)" offset="0.6875"/><stop stop-opacity="1" stop-color="rgb(22.502136%, 71.388245%, 75.804138%)" offset="0.703125"/><stop stop-opacity="1" stop-color="rgb(22.65625%, 71.609497%, 75.654602%)" offset="0.71875"/><stop stop-opacity="1" stop-color="rgb(22.810364%, 71.83075%, 75.505066%)" offset="0.734375"/><stop stop-opacity="1" stop-color="rgb(22.964478%, 72.052002%, 75.35553%)" offset="0.75"/><stop stop-opacity="1" stop-color="rgb(23.117065%, 72.273254%, 75.20752%)" offset="0.765625"/><stop stop-opacity="1" stop-color="rgb(23.271179%, 72.494507%, 75.057983%)" offset="0.78125"/><stop stop-opacity="1" stop-color="rgb(23.425293%, 72.715759%, 74.908447%)" offset="0.796875"/><stop stop-opacity="1" stop-color="rgb(23.579407%, 72.937012%, 74.758911%)" offset="0.8125"/><stop stop-opacity="1" stop-color="rgb(23.733521%, 73.158264%, 74.610901%)" offset="0.828125"/><stop stop-opacity="1" stop-color="rgb(23.887634%, 73.379517%, 74.461365%)" offset="0.84375"/><stop stop-opacity="1" stop-color="rgb(24.040222%, 73.600769%, 74.311829%)" offset="0.859375"/><stop stop-opacity="1" stop-color="rgb(24.194336%, 73.822021%, 74.162292%)" offset="0.875"/><stop stop-opacity="1" stop-color="rgb(24.34845%, 74.043274%, 74.014282%)" offset="0.890625"/><stop stop-opacity="1" stop-color="rgb(24.502563%, 74.264526%, 73.864746%)" offset="0.90625"/><stop stop-opacity="1" stop-color="rgb(24.656677%, 74.487305%, 73.71521%)" offset="0.921875"/><stop stop-opacity="1" stop-color="rgb(24.810791%, 74.708557%, 73.5672%)" offset="0.9375"/><stop stop-opacity="1" stop-color="rgb(24.963379%, 74.92981%, 73.417664%)" offset="0.953125"/><stop stop-opacity="1" stop-color="rgb(25.117493%, 75.151062%, 73.268127%)" offset="0.96875"/><stop stop-opacity="1" stop-color="rgb(25.271606%, 75.372314%, 73.118591%)" offset="0.984375"/><stop stop-opacity="1" stop-color="rgb(25.424194%, 75.590515%, 72.972107%)" offset="1"/></linearGradient></defs><g clip-path="url(#76643878fc)"><g mask="url(#14a59b5744)"><g transform="matrix(1, 0, 0, 1, -0.000000000000000056, 1)"><g clip-path="url(#85e76b0ebd)"><g clip-path="url(#46e6ed2f65)"><g clip-path="url(#6541a18e17)"><path fill="#000000" d="M 0.253906 1.402344 L 0.253906 167.777344 L 167.199219 167.777344 L 167.199219 1.402344 Z M 0.253906 1.402344 " fill-opacity="1" fill-rule="nonzero"/></g></g></g></g></g></g><g clip-path="url(#2d772b10c1)"><g clip-path="url(#c1abe4ee2f)"><path fill="url(#d2087d33ba)" d="M 7.917969 0.5 L 7.917969 166.875 L 175.011719 166.875 L 175.011719 0.5 Z M 7.917969 0.5 " fill-rule="nonzero"/></g></g></svg>