<svg xmlns="http://www.w3.org/2000/svg" xmlns:xlink="http://www.w3.org/1999/xlink" width="325" zoomAndPan="magnify" viewBox="0 0 243.75 243.749992" height="325" preserveAspectRatio="xMidYMid meet" version="1.0"><defs><filter x="0%" y="0%" width="100%" height="100%" id="1e2de9d79b"><feColorMatrix values="0 0 0 0 1 0 0 0 0 1 0 0 0 0 1 0 0 0 1 0" color-interpolation-filters="sRGB"/></filter><clipPath id="e98daa9389"><path d="M 0 3 L 240 3 L 240 243.5 L 0 243.5 Z M 0 3 " clip-rule="nonzero"/></clipPath><mask id="6245e50984"><g filter="url(#1e2de9d79b)"><rect x="-24.375" width="292.5" fill="#000000" y="-24.374999" height="292.49999" fill-opacity="0.26"/></g></mask><clipPath id="9d2be6a2fc"><path d="M 0 0.746094 L 239.753906 0.746094 L 239.753906 240.5 L 0 240.5 Z M 0 0.746094 " clip-rule="nonzero"/></clipPath><clipPath id="967c94d04c"><rect x="0" width="240" y="0" height="241"/></clipPath><clipPath id="10db8185d0"><path d="M 3.746094 0.363281 L 243.5 0.363281 L 243.5 240.117188 L 3.746094 240.117188 Z M 3.746094 0.363281 " clip-rule="nonzero"/></clipPath></defs><g clip-path="url(#e98daa9389)"><g mask="url(#6245e50984)"><g transform="matrix(1, 0, 0, 1, 0, 3)"><g clip-path="url(#967c94d04c)"><path fill="#000000" d="M 189.289062 36.585938 C 174.613281 36.585938 162.675781 48.523438 162.675781 63.199219 C 162.675781 77.875 174.613281 89.8125 189.289062 89.8125 C 203.964844 89.8125 215.902344 77.875 215.902344 63.199219 C 215.902344 48.523438 203.964844 36.585938 189.289062 36.585938 Z M 189.289062 83.632812 C 178.019531 83.632812 168.855469 74.464844 168.855469 63.199219 C 168.855469 51.933594 178.019531 42.765625 189.289062 42.765625 C 200.558594 42.765625 209.722656 51.933594 209.722656 63.199219 C 209.722656 74.464844 200.558594 83.632812 189.289062 83.632812 Z M 189.289062 83.632812 " fill-opacity="1" fill-rule="nonzero"/><g clip-path="url(#9d2be6a2fc)"><path fill="#000000" d="M 219.128906 0.804688 L 20.570312 0.804688 C 9.207031 0.804688 -0.0390625 10.046875 -0.0390625 21.414062 L -0.0390625 219.972656 C -0.0390625 231.335938 9.207031 240.582031 20.570312 240.582031 L 219.128906 240.582031 C 230.496094 240.582031 239.738281 231.335938 239.738281 219.972656 L 239.738281 21.414062 C 239.738281 10.046875 230.496094 0.804688 219.128906 0.804688 Z M 233.558594 219.972656 C 233.558594 227.925781 227.085938 234.402344 219.128906 234.402344 L 20.570312 234.402344 C 12.613281 234.402344 6.140625 227.925781 6.140625 219.972656 L 6.140625 176.214844 L 82 103.28125 L 121.847656 141.316406 L 149.78125 112.175781 L 233.558594 176.425781 Z M 233.558594 168.644531 L 149.148438 103.910156 L 121.65625 132.597656 L 81.984375 94.730469 L 6.140625 167.648438 L 6.140625 21.414062 C 6.140625 13.457031 12.613281 6.984375 20.570312 6.984375 L 219.128906 6.984375 C 227.085938 6.984375 233.558594 13.457031 233.558594 21.414062 Z M 233.558594 168.644531 " fill-opacity="1" fill-rule="nonzero"/></g></g></g></g></g><path fill="#f7f7f7" d="M 193.035156 36.203125 C 178.359375 36.203125 166.421875 48.140625 166.421875 62.816406 C 166.421875 77.492188 178.359375 89.429688 193.035156 89.429688 C 207.710938 89.429688 219.648438 77.492188 219.648438 62.816406 C 219.648438 48.140625 207.710938 36.203125 193.035156 36.203125 Z M 193.035156 83.25 C 181.765625 83.25 172.601562 74.082031 172.601562 62.816406 C 172.601562 51.546875 181.765625 42.382812 193.035156 42.382812 C 204.304688 42.382812 213.46875 51.546875 213.46875 62.816406 C 213.46875 74.082031 204.304688 83.25 193.035156 83.25 Z M 193.035156 83.25 " fill-opacity="1" fill-rule="nonzero"/><g clip-path="url(#10db8185d0)"><path fill="#f7f7f7" d="M 222.875 0.417969 L 24.316406 0.417969 C 12.953125 0.417969 3.707031 9.664062 3.707031 21.03125 L 3.707031 219.589844 C 3.707031 230.953125 12.953125 240.199219 24.316406 240.199219 L 222.875 240.199219 C 234.242188 240.199219 243.484375 230.953125 243.484375 219.589844 L 243.484375 21.03125 C 243.484375 9.664062 234.242188 0.417969 222.875 0.417969 Z M 237.304688 219.589844 C 237.304688 227.542969 230.832031 234.015625 222.875 234.015625 L 24.316406 234.015625 C 16.359375 234.015625 9.886719 227.542969 9.886719 219.589844 L 9.886719 175.832031 L 85.746094 102.898438 L 125.59375 140.933594 L 153.527344 111.789062 L 237.304688 176.042969 Z M 237.304688 168.257812 L 152.894531 103.523438 L 125.402344 132.214844 L 85.730469 94.347656 L 9.886719 167.265625 L 9.886719 21.03125 C 9.886719 13.074219 16.359375 6.601562 24.316406 6.601562 L 222.875 6.601562 C 230.832031 6.601562 237.304688 13.074219 237.304688 21.03125 Z M 237.304688 168.257812 " fill-opacity="1" fill-rule="nonzero"/></g></svg>